<svg width="128" height="128" viewBox="0 0 128 128" fill="none" xmlns="http://www.w3.org/2000/svg">
  <rect width="128" height="128" rx="28" fill="#10151F"/>
  <rect x="20" y="18" width="88" height="92" rx="18" fill="#171E2B" stroke="#2BD4F7" stroke-width="4"/>
  <path d="M38 36C38 31.5817 41.5817 28 46 28H90V92H46C41.5817 92 38 88.4183 38 84V36Z" fill="#1F2A3A"/>
  <path d="M90 28H46C41.5817 28 38 31.5817 38 36V84C38 88.4183 41.5817 92 46 92H90" stroke="#7EE7FF" stroke-width="4" stroke-linejoin="round"/>
  <path d="M52 46H78" stroke="#2BD4F7" stroke-width="4" stroke-linecap="round"/>
  <path d="M52 58H78" stroke="#2BD4F7" stroke-width="4" stroke-linecap="round"/>
  <path d="M52 70H70" stroke="#2BD4F7" stroke-width="4" stroke-linecap="round"/>
  <path d="M92 45V68" stroke="#F7B500" stroke-width="6" stroke-linecap="round"/>
  <path d="M83 61C83 66.5228 87.4772 71 93 71C98.5228 71 103 66.5228 103 61" stroke="#F7B500" stroke-width="6" stroke-linecap="round"/>
  <path d="M93 71V84" stroke="#F7B500" stroke-width="6" stroke-linecap="round"/>
  <path d="M86 84H100" stroke="#F7B500" stroke-width="6" stroke-linecap="round"/>
</svg>
